<svg xmlns="http://www.w3.org/2000/svg" width="18.014" height="16.212" viewBox="0 0 18.014 16.212">
  <g id="Group_9910" data-name="Group 9910" transform="translate(-1232 -669)" opacity="0.7">
    <path id="Path_36" data-name="Path 36" d="M461.1,19H446.914A1.862,1.862,0,0,0,445,20.8v12.61a1.862,1.862,0,0,0,1.914,1.8H461.1a1.862,1.862,0,0,0,1.914-1.8V20.8A1.862,1.862,0,0,0,461.1,19Zm0,14.411H446.914a.652.652,0,0,1-.1-.014c-.006,0-.01,0-.011.007l-.011-12.561a.166.166,0,0,1,.123-.041H461.1c.071,0,.11.025.113.007l.011,12.561A.165.165,0,0,1,461.1,33.411Z" transform="translate(787 650)" fill="#16191e"/>
    <path id="Path_37" data-name="Path 37" d="M449,23h5.4v5.4H449Zm6.3,7.205H449v1.8h10.808v-1.8h-4.5Zm.9-3.6h3.6v1.8h-3.6Zm0-3.6h3.6v1.8h-3.6Z" transform="translate(786.603 649.603)" fill="#16191e"/>
  </g>
</svg>
